<svg xmlns="http://www.w3.org/2000/svg" viewBox="0 0 100 100">
  <rect width="100" height="100" rx="12" fill="#3b82f6"/>
  <rect x="10" y="10" width="16" height="16" rx="2" fill="white" opacity="0.9"/>
  <rect x="32" y="10" width="16" height="16" rx="2" fill="white" opacity="0.9"/>
  <rect x="54" y="10" width="16" height="16" rx="2" fill="white" opacity="0.9"/>
  <rect x="76" y="10" width="16" height="16" rx="2" fill="white" opacity="0.9"/>
  <rect x="10" y="32" width="16" height="16" rx="2" fill="white" opacity="0.9"/>
  <rect x="32" y="32" width="16" height="16" rx="2" fill="#fbbf24"/>
  <rect x="54" y="32" width="16" height="16" rx="2" fill="white" opacity="0.9"/>
  <rect x="76" y="32" width="16" height="16" rx="2" fill="#22c55e"/>
  <rect x="10" y="54" width="16" height="16" rx="2" fill="white" opacity="0.9"/>
  <rect x="32" y="54" width="16" height="16" rx="2" fill="white" opacity="0.9"/>
  <rect x="54" y="54" width="16" height="16" rx="2" fill="#fbbf24"/>
  <rect x="76" y="54" width="16" height="16" rx="2" fill="white" opacity="0.9"/>
  <rect x="10" y="76" width="16" height="16" rx="2" fill="#22c55e"/>
  <rect x="32" y="76" width="16" height="16" rx="2" fill="white" opacity="0.9"/>
  <rect x="54" y="76" width="16" height="16" rx="2" fill="white" opacity="0.9"/>
  <rect x="76" y="76" width="16" height="16" rx="2" fill="#22c55e"/>
</svg>
